<svg width="616" height="433" viewBox="0 0 616 433" fill="none" xmlns="http://www.w3.org/2000/svg">
<path d="M79.2714 85.5457C94.1928 85.5457 106.289 73.4496 106.289 58.5282C106.289 43.6069 94.1928 31.5107 79.2714 31.5107C64.3501 31.5107 52.2539 43.6069 52.2539 58.5282C52.2539 73.4496 64.3501 85.5457 79.2714 85.5457Z" fill="#EDEDED"/>
<path d="M9.50065 425.788C14.7477 425.788 19.0013 421.534 19.0013 416.287C19.0013 411.04 14.7477 406.786 9.50065 406.786C4.25359 406.786 0 411.04 0 416.287C0 421.534 4.25359 425.788 9.50065 425.788Z" fill="#EDEDED"/>
<path d="M554.898 313.562C581.953 313.562 603.886 291.629 603.886 264.574C603.886 237.519 581.953 215.586 554.898 215.586C527.843 215.586 505.91 237.519 505.91 264.574C505.91 291.629 527.843 313.562 554.898 313.562Z" fill="#EDEDED"/>
<path d="M609.526 59.419C612.641 59.419 615.167 56.8934 615.167 53.778C615.167 50.6625 612.641 48.137 609.526 48.137C606.411 48.137 603.885 50.6625 603.885 53.778C603.885 56.8934 606.411 59.419 609.526 59.419Z" fill="#EDEDED"/>
<path d="M75.7077 229.837L77.1398 236.177L82.6356 232.707L79.1652 238.203L85.5052 239.635L79.1652 241.067L82.6356 246.563L77.1398 243.092L75.7077 249.432L74.2756 243.092L68.7798 246.563L72.2502 241.067L65.9102 239.635L72.2502 238.203L68.7798 232.707L74.2756 236.177L75.7077 229.837Z" fill="#0E90A1"/>
<path d="M538.866 0.633911L540.298 6.97399L545.794 3.50355L542.323 8.99933L548.663 10.4314L542.323 11.8635L545.794 17.3593L540.298 13.8889L538.866 20.229L537.434 13.8889L531.938 17.3593L535.408 11.8635L529.068 10.4314L535.408 8.99933L531.938 3.50355L537.434 6.97399L538.866 0.633911Z" fill="#0E90A1"/>
<path d="M538.866 413.318L540.298 419.658L545.794 416.188L542.323 421.684L548.663 423.116L542.323 424.548L545.794 430.044L540.298 426.573L538.866 432.913L537.434 426.573L531.938 430.044L535.408 424.548L529.068 423.116L535.408 421.684L531.938 416.188L537.434 419.658L538.866 413.318Z" fill="#EDD521"/>
<path d="M19.2975 34.4799L20.7297 40.82L26.2255 37.3496L22.755 42.8453L29.0951 44.2775L22.755 45.7096L26.2255 51.2054L20.7297 47.7349L19.2975 54.075L17.8654 47.7349L12.3696 51.2054L15.8401 45.7096L9.5 44.2775L15.8401 42.8453L12.3696 37.3496L17.8654 40.82L19.2975 34.4799Z" fill="#EDD521"/>
</svg>
